<?xml version="1.0" encoding="UTF-8" standalone="no"?>
<svg
   xmlns:dc="http://purl.org/dc/elements/1.1/"
   xmlns:cc="http://creativecommons.org/ns#"
   xmlns:rdf="http://www.w3.org/1999/02/22-rdf-syntax-ns#"
   xmlns:svg="http://www.w3.org/2000/svg"
   xmlns="http://www.w3.org/2000/svg"
   viewBox="0 0 666.66669 666.66669"
   height="666.66669"
   width="666.66669"
   xml:space="preserve"
   id="svg2"
   version="1.1"><metadata
     id="metadata8"><rdf:RDF><cc:Work
         rdf:about=""><dc:format>image/svg+xml</dc:format><dc:type
           rdf:resource="http://purl.org/dc/dcmitype/StillImage" /></cc:Work></rdf:RDF></metadata><defs
     id="defs6" /><g
     transform="matrix(1.3333333,0,0,-1.3333333,0,666.66667)"
     id="g10"><g
       transform="scale(0.1)"
       id="g12"><path
         id="path14"
         style="fill:#fcfcfc;fill-opacity:1;fill-rule:nonzero;stroke:none"
         d="M 0,0 H 5000 V 5000 H 0 Z" /><path
         id="path16"
         style="fill:#fff8f8;fill-opacity:1;fill-rule:nonzero;stroke:none"
         d="m 4302.93,784.191 c 532.41,544.389 301.92,1389.069 -729.57,1581.779 -1031.5,192.7 -1253.94,1347.05 -2192,1106.27 C 443.293,3231.47 87.1367,1458.67 1049.81,784.191 h 3253.12" /><path
         id="path18"
         style="fill:#3b364d;fill-opacity:1;fill-rule:nonzero;stroke:none"
         d="m 4237.32,923.82 h 65.61 v 1642.72 h -65.61 V 923.82" /><path
         id="path20"
         style="fill:#ffe5e2;fill-opacity:1;fill-rule:nonzero;stroke:none"
         d="m 1827.54,784.191 c 0,-23.812 -208.74,-43.121 -466.22,-43.121 -257.49,0 -466.222,19.309 -466.222,43.121 0,23.809 208.732,43.11 466.222,43.11 257.48,0 466.22,-19.301 466.22,-43.11" /><path
         id="path22"
         style="fill:#ffe5e2;fill-opacity:1;fill-rule:nonzero;stroke:none"
         d="m 3996.35,738.09 c 0,-49.27 -405.7,-89.219 -906.15,-89.219 -500.45,0 -906.16,39.949 -906.16,89.219 0,49.262 405.71,89.211 906.16,89.211 500.45,0 906.15,-39.949 906.15,-89.211" /><path
         id="path24"
         style="fill:#aab2c8;fill-opacity:1;fill-rule:nonzero;stroke:none"
         d="M 1878.96,2457.34 H 615.039 c -59.414,0 -107.578,48.17 -107.578,107.58 v 1096.01 c 0,59.42 48.164,107.58 107.578,107.58 H 1878.96 c 59.42,0 107.58,-48.16 107.58,-107.58 V 2564.92 c 0,-59.41 -48.16,-107.58 -107.58,-107.58" /><path
         id="path26"
         style="fill:#e0e7ff;fill-opacity:1;fill-rule:nonzero;stroke:none"
         d="m 607.742,2565.73 h 1278.52 V 3660.12 H 607.742 Z" /><path
         id="path28"
         style="fill:#aab2c8;fill-opacity:1;fill-rule:nonzero;stroke:none"
         d="m 1242,2565.73 h 10 v 1094.39 h -10 z" /><path
         id="path30"
         style="fill:#aab2c8;fill-opacity:1;fill-rule:nonzero;stroke:none"
         d="m 607.742,3107.93 h 1278.52 v 9.9922 H 607.742 Z" /><path
         id="path32"
         style="fill:#f1f4ff;fill-opacity:1;fill-rule:nonzero;stroke:none"
         d="M 927.93,2566.54 H 738.301 l 212.265,541.39 H 1142.48 L 927.93,2566.54 m 218.51,551.38 H 954.484 l 212.586,542.2 H 1242 v -301.07 l -95.56,-241.13 M 1252,3384.28 v 275.84 h 109.32 L 1252,3384.28" /><path
         id="path34"
         style="fill:#d8dce6;fill-opacity:1;fill-rule:nonzero;stroke:none"
         d="m 1242,3359.05 v 301.07 h 10 v -275.84 l -10,-25.23" /><path
         id="path36"
         style="fill:#d8dce6;fill-opacity:1;fill-rule:nonzero;stroke:none"
         d="M 1142.48,3107.93 H 950.566 l 3.918,9.99 h 191.956 l -3.96,-9.99" /><path
         id="path38"
         style="fill:#f1f4ff;fill-opacity:1;fill-rule:nonzero;stroke:none"
         d="M 1259.48,2566.54 H 1252 v 464.6 l 30.11,76.79 h 105.51 c -59.59,-134.94 -90.96,-291.05 -97.66,-464.48 l -30.48,-76.91 m -17.48,0 H 1069.84 L 1242,3005.63 v -439.09 m 150.11,551.38 h -106.08 l 212.58,542.2 h 194.26 l -108.15,-272.9 c -82.02,-75.94 -145.7,-166.3 -192.61,-269.3" /><path
         id="path40"
         style="fill:#d8dce6;fill-opacity:1;fill-rule:nonzero;stroke:none"
         d="m 1252,2566.54 h -10 v 439.09 l 10,25.51 v -464.6" /><path
         id="path42"
         style="fill:#d8dce6;fill-opacity:1;fill-rule:nonzero;stroke:none"
         d="m 1387.62,3107.93 h -105.51 l 3.92,9.99 h 106.08 c -1.51,-3.3 -3.01,-6.66 -4.49,-9.99" /><path
         id="path44"
         style="fill:#773c4d;fill-opacity:1;fill-rule:nonzero;stroke:none"
         d="M 4547.17,2507.83 H 3288.2 v 117.42 h 1258.97 v -117.42" /><path
         id="path46"
         style="fill:#965363;fill-opacity:1;fill-rule:nonzero;stroke:none"
         d="m 4547.17,2507.83 h -803 v 117.42 h 803 v -117.42" /><path
         id="path48"
         style="fill:#61648a;fill-opacity:1;fill-rule:nonzero;stroke:none"
         d="m 4202.97,2625.25 h -642.23 c -22.36,0 -40.49,18.13 -40.49,40.49 v 107.62 c 0,22.37 18.13,40.49 40.49,40.49 h 642.23 v -188.6" /><path
         id="path50"
         style="fill:#edf1fc;fill-opacity:1;fill-rule:nonzero;stroke:none"
         d="m 4213.9,2665.12 h -644.11 v 108.86 h 644.11 v -108.86" /><path
         id="path52"
         style="fill:#e0e7ff;fill-opacity:1;fill-rule:nonzero;stroke:none"
         d="m 4028.02,2665.12 h -459.79 v 108.86 h 459.79 v -108.86" /><path
         id="path54"
         style="fill:#ffc55a;fill-opacity:1;fill-rule:nonzero;stroke:none"
         d="M 4097.53,2813.85 H 3455.3 c -22.36,0 -40.49,18.13 -40.49,40.49 v 107.62 c 0,22.36 18.13,40.49 40.49,40.49 h 642.23 v -188.6" /><path
         id="path56"
         style="fill:#edf1fc;fill-opacity:1;fill-rule:nonzero;stroke:none"
         d="m 4106.9,2853.72 h -644.11 v 108.86 h 644.11 v -108.86" /><path
         id="path58"
         style="fill:#e0e7ff;fill-opacity:1;fill-rule:nonzero;stroke:none"
         d="m 3925.77,2853.72 h -462.98 v 108.86 h 462.98 v -108.86" /><path
         id="path60"
         style="fill:#af2f48;fill-opacity:1;fill-rule:nonzero;stroke:none"
         d="m 4243.14,3002.45 h -642.22 c -22.37,0 -40.49,18.12 -40.49,40.48 v 107.63 c 0,22.36 18.12,40.48 40.49,40.48 h 642.22 v -188.59" /><path
         id="path62"
         style="fill:#edf1fc;fill-opacity:1;fill-rule:nonzero;stroke:none"
         d="m 4254.67,3042.31 h -644.11 v 108.86 h 644.11 v -108.86" /><path
         id="path64"
         style="fill:#e0e7ff;fill-opacity:1;fill-rule:nonzero;stroke:none"
         d="m 4042.55,3042.31 h -434.14 v 108.86 h 434.14 v -108.86" /><path
         id="path66"
         style="fill:#ffc55a;fill-opacity:1;fill-rule:nonzero;stroke:none"
         d="m 3527.92,1654.02 c 0.88,-140.31 -12.37,-274 -48.63,-394.36 l -0.08,-0.27 C 3377.58,922.461 3095.03,690.281 2434.33,711.809 1537.6,741.012 1374.71,1574.8 1299.5,2354.39 c -61.09,632.56 129.07,1098.14 699.92,1251.35 132.74,35.64 286.13,54.38 461.65,54.38 806.96,0 1063.45,-1472.63 1066.85,-2006.1" /><path
         id="path68"
         style="fill:#f49947;fill-opacity:1;fill-rule:nonzero;stroke:none"
         d="M 3479.21,1259.39 C 3377.58,922.461 3095.03,690.281 2434.33,711.809 1537.6,741.012 1374.71,1574.8 1299.5,2354.39 c -61.09,632.56 129.07,1098.14 699.92,1251.35 -490.23,-298.85 -611.99,-843.3 -411.62,-1671.51 200.28,-828.22 705.76,-1069.109 1033.12,-1069.64 327.25,-0.61 738.09,106.242 858.29,394.8" /><path
         id="path70"
         style="fill:#f49947;fill-opacity:1;fill-rule:nonzero;stroke:none"
         d="m 2233.82,2878.31 c -639.63,-113.86 -360.59,-1027.51 -219.2,-1283.35 141.39,-255.84 201.65,-558.8 528.34,-572.26 326.7,-13.47 744.12,134.64 784.52,242.37 40.39,107.71 -144.44,669.2 -144.44,669.2 0,0 -25.56,568.23 -202.61,717.47 -177.04,149.23 -534.15,264.4 -746.61,226.57" /><path
         id="path72"
         style="fill:#f27c49;fill-opacity:1;fill-rule:nonzero;stroke:none"
         d="m 3090.22,1337.44 c -116.84,-218.4 -515.08,-295.16 -651.54,-260.59 -80.32,20.38 -176.7,93.32 -264.32,198.01 -55.97,98.59 -100.81,213.47 -159.73,320.13 -22.16,40.08 -47.64,96.2 -72.43,162.86 -48.74,234.61 -47.3,513.22 44.32,608.15 124.4,128.73 245.15,219.41 253.81,299.15 6.71,62.57 -64.28,145.11 -50.02,203.79 13.93,3.56 28.45,6.7 43.48,9.34 175.01,31.16 448.08,-41.44 637.95,-151.41 18.26,-69.2 19.87,-161.92 62.84,-191.98 66.06,-46.02 168.21,-334.65 194.11,-470.16 25.81,-135.52 -38.47,-727.29 -38.47,-727.29" /><path
         id="path74"
         style="fill:#af2f48;fill-opacity:1;fill-rule:nonzero;stroke:none"
         d="m 3958.98,990.988 c 5.16,-82.199 242.96,22.712 274.45,68.172 0,0 -130.23,-374.191 -198.01,-374.191 -67.77,0 -252.55,194.89 -252.55,194.89 l 22.18,111.129 h 153.93" /><path
         id="path76"
         style="fill:#d35473;fill-opacity:1;fill-rule:nonzero;stroke:none"
         d="M 4035.42,684.969 C 3961.65,653.32 4146,1118.61 4233.43,1108.12 4320.85,1097.63 4130.68,725.832 4035.42,684.969" /><path
         id="path78"
         style="fill:#31344c;fill-opacity:1;fill-rule:nonzero;stroke:none"
         d="m 3987.22,1529.75 c -4.8,-240.55 -67.28,-538.781 -67.28,-538.781 h -154 c 0,0 -94.65,202.981 -139.01,407.261 -11.16,51.24 -19.09,102.58 -21.62,150.77 0,0 -238.62,-72.15 -469.49,-28.84 -96.04,17.96 -204.81,48.45 -299.11,78 -132.3,41.31 -236.1,80.71 -236.1,80.71 l 7.85,9.93 168.38,213.01 453.19,68.15 53.08,8.02 322.2,-99.88 c 285.78,-30.85 386.79,-107.81 381.91,-348.35" /><path
         id="path80"
         style="fill:#886e45;fill-opacity:1;fill-rule:nonzero;stroke:none"
         d="m 3181.35,1962.64 c -0.43,6.3 -0.95,13.53 -1.57,21.63 l 50.25,-14.31 -48.68,-7.32" /><path
         id="path82"
         style="fill:#835a3c;fill-opacity:1;fill-rule:nonzero;stroke:none"
         d="m 3134.79,1955.64 c 0.07,14.75 -0.06,28.67 -0.41,41.55 l 45.4,-12.92 c 0.62,-8.1 1.14,-15.33 1.57,-21.63 l -46.56,-7" /><path
         id="path84"
         style="fill:#824c3d;fill-opacity:1;fill-rule:nonzero;stroke:none"
         d="m 2949.39,1927.76 31.04,28.77 v 0 c 0,0 -1.94,17.18 -5.78,45.89 l 63.47,22.18 96.26,-27.41 c 0.35,-12.88 0.48,-26.8 0.41,-41.55 l -185.4,-27.88" /><path
         id="path86"
         style="fill:#292b3e;fill-opacity:1;fill-rule:nonzero;stroke:none"
         d="m 3626.93,1398.23 v 0 c -11.16,51.24 -19.09,102.58 -21.62,150.77 0,0 -26.75,-8.09 -71.02,-17.23 -30.34,50.61 -61.84,99.73 -93.87,145.01 -53.37,75.47 -139.75,120.7 -232.13,120.7 -0.54,0 -1.08,0 -1.61,0 -116.81,-0.66 -288.77,-9.14 -447.03,-45.62 l 189.74,175.9 185.4,27.88 46.56,7 48.68,7.32 322.38,-91.73 c -77.92,-139.97 78.88,-305.51 113.3,-355.28 8.55,-12.36 21.02,-16.69 35.87,-16.69 17.44,0 38.16,5.96 59.72,11.93 21.57,5.96 43.97,11.92 64.75,11.92 12.04,0 23.54,-2 34.02,-7.16 62.05,-30.6 -183.81,-15.95 -233.14,-124.72" /><path
         id="path88"
         style="fill:#af2f48;fill-opacity:1;fill-rule:nonzero;stroke:none"
         d="M 3717.87,856.301 C 3788.68,702.449 3893.6,629.012 3949.55,653.5 l -24.47,255.289 -101.38,43.723 -105.83,-96.211" /><path
         id="path90"
         style="fill:#d35473;fill-opacity:1;fill-rule:nonzero;stroke:none"
         d="m 3949.55,653.5 c -124.61,-20.781 -101.42,220.359 -94.42,337.488 7,117.132 104.92,106.642 115.41,15.712 10.49,-90.919 62.95,-339.22 -20.99,-353.2" /><path
         id="path92"
         style="fill:#383952;fill-opacity:1;fill-rule:nonzero;stroke:none"
         d="m 3823.72,952.531 -105.8,-96.222 c -432.98,125.07 -687.9,519.521 -687.9,519.521 -240.55,-278.97 -509.94,-341.55 -726.69,0 0,0 13.68,151.83 189.47,268.87 34.07,22.84 74.34,44.27 121.75,63.01 188,74.43 438.04,88.9 592.13,89.77 92.99,0.53 180.06,-44.79 233.74,-120.7 90.64,-128.12 177.01,-287 244.81,-423.31 83.32,-167.6 138.49,-300.939 138.49,-300.939" /><path
         id="path94"
         style="fill:#2d2e41;fill-opacity:1;fill-rule:nonzero;stroke:none"
         d="m 3717.92,856.309 c -134.67,38.902 -252.14,103.871 -350.04,174.921 -14.7,10.67 -28.92,21.44 -42.73,32.31 -116.68,91.87 -201.38,188.71 -249.35,249.74 -30.12,38.33 -45.78,62.55 -45.78,62.55 -126.28,-146.45 -260.55,-233.27 -390.94,-233.29 -110.68,-0.01 -218.54,62.49 -316.47,204.17 l 346.48,321.2 c -114.51,-233.44 4.67,-299.9 143.22,-299.9 101.2,0 212.72,35.43 251.18,67.18 91.85,75.9 178.57,151.9 219.62,156.09 0.52,0.05 1.01,0.08 1.45,0.08 34.14,0 -174.95,-158.15 -24.2,-337.89 85,-101.46 231.96,-181.63 331.64,-181.63 79.27,0 128.64,50.67 93.23,181.63 83.32,-167.6 138.49,-300.939 138.49,-300.939 l -105.8,-96.222" /><path
         id="path96"
         style="fill:#6d3744;fill-opacity:1;fill-rule:nonzero;stroke:none"
         d="m 2768.47,3023.9 h -6.45 c 0,0 -64.15,-245.51 -173.52,-337.02 -19.7,-16.47 -40.88,-27.98 -63.45,-32.16 -147.55,-27.28 -276.1,140.84 -300.42,256.14 -13.59,64.5 10.37,104.07 34.17,126.29 18.64,17.78 37.29,24.66 37.29,24.66 0,0 9.68,181.9 73.04,178.58 60.92,-3.14 50.72,-27.28 49.94,-29.11 3.92,5.23 136.49,181.45 227.65,162.28 92.55,-19.52 27.63,-155.83 27.63,-155.83 0,0 116.86,118.44 155.83,50.29 38.95,-68.16 -76.26,-150.95 -76.26,-150.95 0,0 99,1.57 108.76,-34.17 9.67,-35.64 -4.88,-69.8 -94.21,-59" /><path
         id="path98"
         style="fill:#542633;fill-opacity:1;fill-rule:nonzero;stroke:none"
         d="m 2588.5,2686.88 c -19.7,-16.47 -40.88,-27.98 -63.45,-32.16 -147.55,-27.28 -276.1,140.84 -300.42,256.14 -13.59,64.5 10.37,104.07 34.17,126.29 21.96,-28.5 51.33,-85.67 118.35,-13.25 h 31.11 l 180.24,-337.02" /><path
         id="path100"
         style="fill:#61648a;fill-opacity:1;fill-rule:nonzero;stroke:none"
         d="M 2980.43,1956.53 2306.64,1331.9 c -32.76,29.47 -61.27,60.23 -85.93,92.21 h -0.09 c -45.76,59.09 -78.7,122.2 -102.06,188 -17.52,49.41 -29.71,100.31 -37.73,152.17 -18.48,118.35 -15.95,242.11 -8.46,364.99 17.52,287.78 104.51,479.96 449.97,484.84 0,0 158.36,44.27 275.59,-18.91 92.21,-49.59 152.25,-416.33 173.69,-570.6 5.84,-41.83 8.81,-68.07 8.81,-68.07" /><path
         id="path102"
         style="fill:#525476;fill-opacity:1;fill-rule:nonzero;stroke:none"
         d="m 2277.32,1936.25 -56.64,17.45 114.69,412.27 c 0,0 92.82,-163.07 309.12,-163.07 55.76,0 119.74,10.84 192.43,38.11 l 40.13,-226.35 -579.74,-60.91 -19.99,-17.5" /><path
         id="path104"
         style="fill:#525476;fill-opacity:1;fill-rule:nonzero;stroke:none"
         d="m 2306.64,1331.9 c -32.76,29.47 -61.27,60.23 -85.93,92.21 117.22,8.9 369.01,289.18 302.85,303.82 -2.65,0.58 -5.6,0.86 -8.81,0.86 -33.03,0 -94.75,-29.29 -165.03,-58.59 -70.28,-29.29 -149.13,-58.58 -216.41,-58.58 -4.99,0 -9.9,0.16 -14.75,0.49 v 0 c -17.52,49.41 -29.71,100.31 -37.73,152.17 l 196.49,171.97 188.78,-58.17 427.28,44.48 -16.33,92.1 94.57,9.94 c 5.84,-41.83 8.81,-68.07 8.81,-68.07 l -311.34,-288.62 -346.48,-321.2 -15.97,-14.81" /><path
         id="path106"
         style="fill:#494a69;fill-opacity:1;fill-rule:nonzero;stroke:none"
         d="m 2466.1,1878.08 -188.78,58.17 19.99,17.5 579.74,60.91 16.33,-92.1 -427.28,-44.48" /><path
         id="path108"
         style="fill:#f4b8ab;fill-opacity:1;fill-rule:nonzero;stroke:none"
         d="m 2600.63,2039.51 c 79.15,53.49 171.25,8.92 203.94,-14.85 32.69,-23.77 0,-86.17 0,-86.17 0,0 -35.65,20.8 -47.54,23.77 -11.88,2.96 -69.18,-41.61 -183.16,-23.77 -113.98,17.83 26.76,101.02 26.76,101.02" /><path
         id="path110"
         style="fill:#61648a;fill-opacity:1;fill-rule:nonzero;stroke:none"
         d="m 2138.23,2412.74 c 155.21,115.75 243.12,14.05 235.61,-185.97 -7.51,-200.03 -7.51,-200.03 -7.51,-200.03 0,0 197.93,63.16 246.35,63.16 0,0 4.21,-136.85 0,-185.98 0,0 -239.33,-231.61 -397.24,-249.15 -157.92,-17.54 -126.34,294.77 -140.37,438.65 -14.03,143.87 9.25,279.12 63.16,319.32" /><path
         id="path112"
         style="fill:#c3c9f4;fill-opacity:1;fill-rule:nonzero;stroke:none"
         d="m 2777.22,1929.23 117.72,476.86 c 12,48.62 55.62,82.78 105.69,82.78 h 675.55 c 44.36,0 76.83,-41.8 65.84,-84.78 l -136.33,-498.64 -828.47,23.78" /><path
         id="path114"
         style="fill:#e0e7ff;fill-opacity:1;fill-rule:nonzero;stroke:none"
         d="m 2824.51,1929.23 117.73,476.86 c 12,48.62 55.61,82.78 105.69,82.78 h 675.55 c 44.35,0 76.81,-41.8 65.84,-84.78 l -136.33,-498.64 -828.48,23.78" /><path
         id="path116"
         style="fill:#c3c9f4;fill-opacity:1;fill-rule:nonzero;stroke:none"
         d="m 3457.82,1881.68 h -859.44 c -13.13,0 -23.77,10.64 -23.77,23.77 0,13.13 10.64,23.78 23.77,23.78 h 859.44 c 13.14,0 23.77,-10.65 23.77,-23.78 0,-13.13 -10.63,-23.77 -23.77,-23.77" /><path
         id="path118"
         style="fill:#e0e7ff;fill-opacity:1;fill-rule:nonzero;stroke:none"
         d="m 3660.43,1881.68 h -859.44 c -13.13,0 -23.77,10.64 -23.77,23.77 0,13.13 10.64,23.78 23.77,23.78 h 859.44 c 13.12,0 23.77,-10.65 23.77,-23.78 0,-13.13 -10.65,-23.77 -23.77,-23.77" /><path
         id="path120"
         style="fill:#c3c9f4;fill-opacity:1;fill-rule:nonzero;stroke:none"
         d="m 3373.05,2198.52 c -11.33,-62.01 -39.43,-108.8 -62.77,-104.55 -23.34,4.27 -33.06,57.98 -21.74,119.99 11.33,62 39.43,108.8 62.77,104.54 23.34,-4.27 33.07,-57.98 21.74,-119.98" /><path
         id="path122"
         style="fill:#f4b8ab;fill-opacity:1;fill-rule:nonzero;stroke:none"
         d="m 2807.02,2984.02 c 14.97,-219.56 -19.96,-316.86 -144.72,-329.34 v -51.15 c 0,-37.89 -30.71,-68.61 -68.6,-68.61 -37.9,0 -68.61,30.72 -68.61,68.61 v 51.15 c 0,0 -99.81,42.42 -119.77,104.79 -19.96,62.38 0,9.98 0,9.98 l -8.86,254.49 h 413.8 l -3.24,-39.92" /><path
         id="path124"
         style="fill:#f4b8ab;fill-opacity:1;fill-rule:nonzero;stroke:none"
         d="m 2411.61,2865.08 c -31.38,57.21 -68.29,33.23 -75.67,0 -7.39,-33.21 59.06,-114.09 75.67,-85.65 16.6,28.44 0,85.65 0,85.65" /><path
         id="path126"
         style="fill:#6d3744;fill-opacity:1;fill-rule:nonzero;stroke:none"
         d="m 2342.81,3052.1 c 66.8,-81.17 256.19,-123.38 324.73,-103.9 68.53,19.48 -28.86,82.8 -28.86,82.8 0,0 127.1,-87.67 185.29,-58.45 58.21,29.22 -98.72,100.65 -98.72,100.65 l -382.44,-21.1" /><path
         id="path128"
         style="fill:#191918;fill-opacity:1;fill-rule:nonzero;stroke:none"
         d="m 2569.74,2878.32 h -10 c 0.01,-5.25 -0.51,-10.04 -1.15,-12.87 l -0.43,-1.64 -0.18,-0.47 4.1,-1.89 -3.21,3.08 -0.89,-1.19 4.1,-1.89 -3.21,3.08 5.77,-5.53 -3.66,7.09 c -1.04,-0.54 -1.69,-1.13 -2.11,-1.56 l 5.77,-5.53 -3.66,7.09 4.05,-7.84 v 8.82 c -1.55,0 -3.03,-0.44 -4.05,-0.98 l 4.05,-7.84 v 8.82 -8.55 l 5.84,6.32 c -0.84,0.83 -2.99,2.23 -5.84,2.23 v -8.55 l 5.84,6.32 -3.95,-4.27 5.11,2.86 -1.16,1.41 -3.95,-4.27 5.11,2.86 -1.18,-0.66 1.23,0.56 -0.05,0.1 -1.18,-0.66 1.23,0.56 c -0.1,0.14 -0.76,2.24 -1.11,4.95 -0.39,2.75 -0.64,6.26 -0.64,10.04 -0.01,5.25 0.5,10.04 1.14,12.87 l 0.44,1.64 0.17,0.47 -4.11,1.89 3.22,-3.08 0.89,1.19 -4.11,1.89 3.22,-3.08 -5.77,5.53 3.66,-7.09 c 1.04,0.54 1.69,1.12 2.11,1.56 l -5.77,5.53 3.66,-7.09 -4.05,7.84 v -8.82 c 1.55,-0.01 3.03,0.44 4.05,0.98 l -4.05,7.84 v -8.82 8.54 l -5.84,-6.32 c 0.84,-0.82 2.99,-2.23 5.84,-2.22 v 8.54 l -5.84,-6.32 3.95,4.27 -5.1,-2.86 1.15,-1.41 3.95,4.27 -5.1,-2.86 1.17,0.66 -1.23,-0.56 0.06,-0.1 1.17,0.66 -1.23,-0.56 c 0.11,-0.14 0.76,-2.23 1.12,-4.94 0.39,-2.75 0.64,-6.26 0.64,-10.04 h 10 10 c -0.01,6.48 -0.55,12.32 -1.62,17.19 -0.56,2.46 -1.18,4.65 -2.4,7.03 -0.64,1.19 -1.42,2.5 -2.96,3.94 -1.45,1.4 -4.23,3.1 -7.73,3.09 -3.5,0.01 -6.28,-1.69 -7.74,-3.09 -2.6,-2.56 -3.28,-4.56 -4.1,-6.57 -1.07,-2.99 -1.68,-6.13 -2.16,-9.75 -0.45,-3.6 -0.7,-7.6 -0.7,-11.84 0.01,-6.49 0.55,-12.32 1.61,-17.19 0.56,-2.46 1.18,-4.64 2.4,-7.03 0.64,-1.19 1.42,-2.49 2.95,-3.94 1.46,-1.4 4.23,-3.1 7.74,-3.09 3.5,-0.01 6.28,1.69 7.74,3.08 2.6,2.56 3.28,4.56 4.09,6.57 1.08,2.99 1.7,6.14 2.17,9.76 0.46,3.59 0.71,7.59 0.71,11.84 h -10" /><path
         id="path130"
         style="fill:#191918;fill-opacity:1;fill-rule:nonzero;stroke:none"
         d="m 2704.6,2878.32 h -10 c 0.01,-5.25 -0.5,-10.04 -1.14,-12.87 l -0.44,-1.64 -0.17,-0.47 4.1,-1.89 -3.21,3.08 -0.89,-1.19 4.1,-1.89 -3.21,3.08 5.76,-5.53 -3.66,7.09 c -1.04,-0.54 -1.68,-1.13 -2.1,-1.56 l 5.76,-5.53 -3.66,7.09 4.05,-7.84 v 8.82 c -1.55,0 -3.02,-0.44 -4.05,-0.98 l 4.05,-7.84 v 8.82 -8.55 l 5.84,6.32 c -0.84,0.83 -2.98,2.23 -5.84,2.23 v -8.55 l 5.84,6.32 -3.94,-4.27 5.1,2.87 -1.16,1.4 -3.94,-4.27 5.1,2.87 -1.18,-0.66 1.23,0.56 -0.05,0.1 -1.18,-0.66 1.23,0.56 c -0.11,0.13 -0.76,2.23 -1.11,4.94 -0.4,2.75 -0.65,6.26 -0.64,10.04 -0.01,5.25 0.5,10.04 1.14,12.86 l 0.43,1.65 0.18,0.47 -4.11,1.89 3.22,-3.09 0.89,1.2 -4.11,1.89 3.22,-3.09 -5.77,5.54 3.66,-7.09 c 1.04,0.54 1.69,1.12 2.11,1.55 l -5.77,5.54 3.66,-7.09 -4.05,7.84 v -8.82 c 1.55,-0.01 3.03,0.44 4.05,0.98 l -4.05,7.84 v -8.82 8.54 l -5.84,-6.32 c 0.85,-0.82 2.99,-2.23 5.84,-2.22 v 8.54 l -5.84,-6.32 3.95,4.27 -5.1,-2.86 1.15,-1.41 3.95,4.27 -5.1,-2.86 1.18,0.66 -1.23,-0.56 0.05,-0.1 1.18,0.66 -1.23,-0.56 c 0.1,-0.14 0.76,-2.23 1.11,-4.94 0.39,-2.75 0.64,-6.26 0.64,-10.04 h 10 10 c -0.01,6.48 -0.55,12.32 -1.62,17.19 -0.56,2.46 -1.18,4.65 -2.4,7.03 -0.64,1.19 -1.42,2.5 -2.95,3.94 -1.46,1.4 -4.23,3.1 -7.74,3.09 -3.5,0.01 -6.28,-1.69 -7.73,-3.09 -2.6,-2.55 -3.29,-4.56 -4.1,-6.56 -1.08,-2.99 -1.7,-6.14 -2.17,-9.76 -0.46,-3.6 -0.7,-7.6 -0.7,-11.84 0.01,-6.49 0.55,-12.33 1.61,-17.19 0.57,-2.47 1.18,-4.65 2.4,-7.03 0.64,-1.2 1.42,-2.5 2.96,-3.95 1.45,-1.39 4.23,-3.09 7.73,-3.08 3.51,-0.01 6.28,1.69 7.74,3.08 2.6,2.56 3.29,4.56 4.1,6.57 1.07,2.99 1.69,6.14 2.17,9.76 0.45,3.59 0.7,7.59 0.7,11.84 h -10" /><path
         id="path132"
         style="fill:#e56a85;fill-opacity:1;fill-rule:nonzero;stroke:none"
         d="m 2650.15,2764.73 c -0.98,-0.03 -1.95,-0.04 -2.92,-0.04 -30.35,-0.01 -57.5,10.89 -77.04,21.89 -9.77,5.49 -17.62,11 -23,15.11 -2.69,2.05 -4.77,3.75 -6.16,4.94 l -1.56,1.35 -0.48,0.43 c -2.03,1.88 -5.19,1.77 -7.07,-0.26 -1.88,-2.02 -1.76,-5.18 0.26,-7.06 0.43,-0.27 49.5,-46.24 115.05,-46.4 1.05,0 2.09,0.01 3.15,0.04 2.76,0.06 4.95,2.35 4.88,5.11 -0.06,2.76 -2.35,4.95 -5.11,4.89" /><path
         id="path134"
         style="fill:#e88c9f;fill-opacity:1;fill-rule:nonzero;stroke:none"
         d="m 2662.3,2603.53 -119.34,48.21 c 0,0 12.9,-0.41 32.13,-0.41 23.62,0 56.76,0.62 87.21,3.35 v -51.15 0" /><path
         id="path136"
         style="fill:#e88c9f;fill-opacity:1;fill-rule:nonzero;stroke:none"
         d="m 2416.46,2791.6 c 2.47,9.54 2.88,20.45 2.29,30.89 3.78,-12.5 5.88,-25.45 0.24,-29.59 -0.75,-0.56 -1.59,-0.98 -2.53,-1.3" /><path
         id="path138"
         style="fill:#e88c9f;fill-opacity:1;fill-rule:nonzero;stroke:none"
         d="m 2412.1,2790.95 c -15.33,0 -42.08,19.67 -43.66,45.57 -1.13,18.36 3.39,30.04 13.26,30.04 6.54,0 15.43,-5.13 26.57,-16.82 0,0 6.28,-13.34 10.48,-27.25 0.59,-10.44 0.18,-21.35 -2.29,-30.89 -1.3,-0.44 -2.77,-0.65 -4.36,-0.65" /><path
         id="path140"
         style="fill:#7c9e1e;fill-opacity:1;fill-rule:nonzero;stroke:none"
         d="m 1314.26,1320.73 c -124.08,45.58 -192.45,27.85 -230.44,78.5 0,0 101.29,17.73 157,0 l 73.44,-78.5" /><path
         id="path142"
         style="fill:#b7ac15;fill-opacity:1;fill-rule:nonzero;stroke:none"
         d="m 1240.82,1399.23 c -150.78,78.79 -195.5,168.22 -233.83,229.98 -38.326,61.75 -59.619,112.85 -74.529,117.11 -14.902,4.26 61.758,-10.65 134.149,-83.04 72.4,-72.4 102.22,-83.05 159.71,-140.54 57.49,-57.5 108.59,-142.11 114.99,-202.01 h -27.05 l -73.44,78.5" /><path
         id="path144"
         style="fill:#7c9e1e;fill-opacity:1;fill-rule:nonzero;stroke:none"
         d="m 1283.81,1420.53 c -81.47,125.03 -8.34,196.83 -106.47,338.57 -114.99,166.09 -78.79,332.18 -61.75,436.53 0,0 -25.5,-121.44 74.56,-239.59 100.04,-118.15 198,-163.92 206.52,-340.13 8.52,-176.21 -25.56,-295.18 -25.56,-295.18 h -56.85 l -30.45,99.8" /><path
         id="path146"
         style="fill:#b7ac15;fill-opacity:1;fill-rule:nonzero;stroke:none"
         d="m 1357.96,1320.73 c -27.31,117.12 25.93,316.99 30.19,515.02 4.26,198.04 -106.47,344.96 57.49,530.22 0,0 -34.07,-34.07 12.78,-170.34 46.84,-136.28 151.19,-278.96 100.08,-462.09 -51.11,-183.12 -161.22,-333.1 -160.46,-412.81 h -40.08" /><path
         id="path148"
         style="fill:#a88f14;fill-opacity:1;fill-rule:nonzero;stroke:none"
         d="m 1398.04,1320.73 c -17.04,140.54 126.39,359.58 247.76,408.56 0,0 12.77,-107.65 -66,-195.43 -78.79,-87.78 -137.37,-213.13 -137.37,-213.13 h -44.39" /><path
         id="path150"
         style="fill:#426313;fill-opacity:1;fill-rule:nonzero;stroke:none"
         d="m 1442.43,1320.73 c 5.34,93.41 86.26,126.16 169.3,150.25 0,0 -100.08,-100.99 -117.11,-150.25 h -52.19" /><path
         id="path152"
         style="fill:#67891a;fill-opacity:1;fill-rule:nonzero;stroke:none"
         d="m 1298.63,1337.43 h -30.47 l -104.13,43.39 125.65,-33.81 8.95,-9.58" /><path
         id="path154"
         style="fill:#8d9214;fill-opacity:1;fill-rule:nonzero;stroke:none"
         d="m 1309.16,1337.43 h -10.53 l -8.95,9.58 18.04,-4.86 1.44,-4.72 m -4.62,15.14 c -24.94,30.9 -92.26,111.85 -134.44,139.43 -50.57,33.06 -117.97,152.18 -117.61,152.18 0.01,0 0.13,-0.18 0.36,-0.57 6.07,-10.1 60.65,-72.77 127.35,-118.6 36.22,-24.88 77.79,-75.95 106.62,-114.34 l 17.72,-58.1" /><path
         id="path156"
         style="fill:#67891a;fill-opacity:1;fill-rule:nonzero;stroke:none"
         d="m 1354.69,1337.43 h -45.53 l -1.44,4.72 6.54,-1.76 c 0,0 -3.58,4.57 -9.72,12.18 l -17.72,58.1 c 20.73,-27.61 34.87,-48.66 35.68,-48.66 0.13,0 -0.12,0.62 -0.79,1.92 -10.11,19.48 -16.17,87.64 -16.17,208.93 0,121.29 -14.15,151.61 -58.28,220.34 -23.7,36.91 -50.02,84.5 -69.32,120.66 13.3,-19.14 32.7,-42.91 60.89,-70.51 78.84,-77.2 76.81,-94.62 94.97,-223.99 7.42,-52.86 13.84,-109.43 18.85,-157.86 -3.4,-46.47 -3.72,-88.49 2.04,-124.07" /><path
         id="path158"
         style="fill:#8d9214;fill-opacity:1;fill-rule:nonzero;stroke:none"
         d="m 1396.77,1337.43 h -42.08 c -5.76,35.58 -5.44,77.6 -2.04,124.07 7.24,-70.1 11.51,-123.13 11.51,-123.13 0,0 17.7,25.57 29.23,25.57 0.16,0 0.32,0 0.48,-0.01 0.03,-0.01 0.06,-0.01 0.09,-0.01 11.35,0.01 -3.45,140.47 23.19,239.26 26.72,99.06 54.15,147.57 44.08,240.17 -10.07,92.61 -18.8,199.48 -18.8,199.48 0,0 20.77,-112.18 39.98,-217.28 19.2,-105.12 -33.35,-190.02 -53.56,-278.79 -8.28,-36.34 -11.13,-69.32 -11.62,-95.61 -13.96,-39.58 -21.63,-78.64 -20.46,-113.72" /><path
         id="path160"
         style="fill:#67891a;fill-opacity:1;fill-rule:nonzero;stroke:none"
         d="m 1177.94,1913.86 c -23.89,34.41 -28.06,53.88 -28.06,53.88 0,0 11.42,-22.69 28.06,-53.88" /><path
         id="path162"
         style="fill:#837f14;fill-opacity:1;fill-rule:nonzero;stroke:none"
         d="m 1444.28,1337.43 h -47.51 c -1.17,35.08 6.5,74.14 20.46,113.72 -0.7,-37.95 3.53,-61.96 3.53,-61.96 6.07,68.46 123.3,203.89 123.3,203.89 0,0 -34.36,-52.56 -70.74,-122.1 -18.37,-35.11 -21.27,-73.06 -19.64,-102.04 -4.28,-9.56 -7.47,-20.03 -9.4,-31.51" /><path
         id="path164"
         style="fill:#426313;fill-opacity:1;fill-rule:nonzero;stroke:none"
         d="m 1488.36,1337.43 h -17.15 c 18.38,30.42 43.47,69.87 49.74,69.87 0.25,0 0.47,-0.06 0.66,-0.19 5.01,-3.46 -17.74,-20.33 -33.25,-69.68 m -30.93,0 h -13.15 c 1.93,11.48 5.12,21.95 9.4,31.51 0.7,-12.49 2.24,-23.3 3.75,-31.51" /><path
         id="path166"
         style="fill:#3a3852;fill-opacity:1;fill-rule:nonzero;stroke:none"
         d="M 1615.31,1283 1535.4,822.672 c -0.97,-5.621 -2.89,-10.75 -5.62,-15.391 -8.09,-13.949 -23.16,-23.09 -40.15,-23.09 h -287.52 c -22.76,0 -42.25,16.508 -45.85,38.95 l -74.94,460.349 c -4.57,28.29 17.22,53.94 45.93,53.94 h 442.21 c 28.86,0 50.74,-25.98 45.85,-54.43" /><path
         id="path168"
         style="fill:#2e2d41;fill-opacity:1;fill-rule:nonzero;stroke:none"
         d="m 1489.63,784.191 h -287.52 c -22.76,0 -42.25,16.508 -45.85,38.95 l -74.94,460.349 c -0.41,2.54 -0.61,5.06 -0.61,7.54 0.01,25.15 20.41,46.4 46.54,46.4 h 152.05 c -141,-218.99 94.19,-473.481 250.48,-530.149 -8.09,-13.949 -23.16,-23.09 -40.15,-23.09" /><path
         id="path170"
         style="fill:#ffc55a;fill-opacity:1;fill-rule:nonzero;stroke:none"
         d="m 2014.63,1594.99 c 58.92,-106.66 103.76,-221.54 159.73,-320.13 -61.31,73.12 -118.3,161.76 -162.62,258.99 -28.36,62.16 -52.13,140.27 -69.54,224 24.79,-66.66 50.27,-122.78 72.43,-162.86" /></g></g></svg>